<svg id="visual" viewBox="0 0 900 600" width="900" height="600" xmlns="http://www.w3.org/2000/svg" xmlns:xlink="http://www.w3.org/1999/xlink" version="1.1"><rect x="0" y="0" width="900" height="600" fill="#001220"></rect><path d="M0 460L21.5 447.7C43 435.3 86 410.7 128.8 406.3C171.7 402 214.3 418 257.2 418.5C300 419 343 404 385.8 400.3C428.7 396.7 471.3 404.3 514.2 399.5C557 394.7 600 377.3 642.8 389C685.7 400.7 728.3 441.3 771.2 446.5C814 451.7 857 421.3 878.5 406.2L900 391L900 601L878.5 601C857 601 814 601 771.2 601C728.3 601 685.7 601 642.8 601C600 601 557 601 514.2 601C471.3 601 428.7 601 385.8 601C343 601 300 601 257.2 601C214.3 601 171.7 601 128.8 601C86 601 43 601 21.5 601L0 601Z" fill="#6a89ae"></path><path d="M0 470L21.5 466.7C43 463.3 86 456.7 128.8 456C171.7 455.3 214.3 460.7 257.2 456.5C300 452.3 343 438.7 385.8 430.7C428.7 422.7 471.3 420.3 514.2 434.2C557 448 600 478 642.8 487.2C685.7 496.3 728.3 484.7 771.2 466C814 447.3 857 421.7 878.5 408.8L900 396L900 601L878.5 601C857 601 814 601 771.2 601C728.3 601 685.7 601 642.8 601C600 601 557 601 514.2 601C471.3 601 428.7 601 385.8 601C343 601 300 601 257.2 601C214.3 601 171.7 601 128.8 601C86 601 43 601 21.5 601L0 601Z" fill="#9cafc9"></path><path d="M0 449L21.5 452.7C43 456.3 86 463.7 128.8 475.8C171.7 488 214.3 505 257.2 505.7C300 506.3 343 490.7 385.8 493C428.7 495.3 471.3 515.7 514.2 522.8C557 530 600 524 642.8 511.8C685.7 499.7 728.3 481.3 771.2 480.5C814 479.7 857 496.3 878.5 504.7L900 513L900 601L878.5 601C857 601 814 601 771.2 601C728.3 601 685.7 601 642.8 601C600 601 557 601 514.2 601C471.3 601 428.7 601 385.8 601C343 601 300 601 257.2 601C214.3 601 171.7 601 128.8 601C86 601 43 601 21.5 601L0 601Z" fill="#cdd6e4"></path><path d="M0 540L21.5 544.3C43 548.7 86 557.3 128.8 553.3C171.7 549.3 214.3 532.7 257.2 534.3C300 536 343 556 385.8 566C428.7 576 471.3 576 514.2 574.2C557 572.3 600 568.7 642.8 567.7C685.7 566.7 728.3 568.3 771.2 560.8C814 553.3 857 536.7 878.5 528.3L900 520L900 601L878.5 601C857 601 814 601 771.2 601C728.3 601 685.7 601 642.8 601C600 601 557 601 514.2 601C471.3 601 428.7 601 385.8 601C343 601 300 601 257.2 601C214.3 601 171.7 601 128.8 601C86 601 43 601 21.5 601L0 601Z" fill="#ffffff"></path></svg>