<svg id="visual" viewBox="0 0 900 600" width="900" height="600" xmlns="http://www.w3.org/2000/svg" xmlns:xlink="http://www.w3.org/1999/xlink" version="1.1"><rect width="900" height="600" fill="#001220"></rect><g><g transform="translate(708 59)"><path d="M0 -135.3L105.8 -84.4L131.9 30.1L58.7 121.9L-58.7 121.9L-131.9 30.1L-105.8 -84.4Z" fill="none" stroke="#ffa963" stroke-width="4"></path></g><g transform="translate(471 257)"><path d="M0 -106L82.9 -66.1L103.3 23.6L46 95.5L-46 95.5L-103.3 23.6L-82.9 -66.1Z" fill="none" stroke="#ffa963" stroke-width="4"></path></g><g transform="translate(660 528)"><path d="M0 -130L101.6 -81.1L126.7 28.9L56.4 117.1L-56.4 117.1L-126.7 28.9L-101.6 -81.1Z" stroke="#ffa963" fill="none" stroke-width="4"></path></g><g transform="translate(179 361)"><path d="M0 -123L96.2 -76.7L119.9 27.4L53.4 110.8L-53.4 110.8L-119.9 27.4L-96.2 -76.7Z" stroke="#ffa963" fill="none" stroke-width="4"></path></g></g></svg>