<svg id="visual" viewBox="0 0 900 600" width="900" height="600" xmlns="http://www.w3.org/2000/svg" xmlns:xlink="http://www.w3.org/1999/xlink" version="1.1"><path d="M0 235L82 127L164 223L245 115L327 115L409 235L491 265L573 157L655 139L736 223L818 127L900 133L900 0L818 0L736 0L655 0L573 0L491 0L409 0L327 0L245 0L164 0L82 0L0 0Z" fill="#ffffff"></path><path d="M0 361L82 205L164 277L245 241L327 175L409 301L491 319L573 247L655 241L736 289L818 187L900 181L900 131L818 125L736 221L655 137L573 155L491 263L409 233L327 113L245 113L164 221L82 125L0 233Z" fill="#ffab70"></path><path d="M0 439L82 253L164 415L245 373L327 343L409 415L491 427L573 307L655 331L736 427L818 343L900 349L900 179L818 185L736 287L655 239L573 245L491 317L409 299L327 173L245 239L164 275L82 203L0 359Z" fill="#f7770f"></path><path d="M0 481L82 355L164 481L245 439L327 409L409 511L491 469L573 409L655 415L736 517L818 415L900 427L900 347L818 341L736 425L655 329L573 305L491 425L409 413L327 341L245 371L164 413L82 251L0 437Z" fill="#ffab70"></path><path d="M0 601L82 601L164 601L245 601L327 601L409 601L491 601L573 601L655 601L736 601L818 601L900 601L900 425L818 413L736 515L655 413L573 407L491 467L409 509L327 407L245 437L164 479L82 353L0 479Z" fill="#ffffff"></path></svg>