<svg id="visual" viewBox="0 0 900 600" width="900" height="600" xmlns="http://www.w3.org/2000/svg" xmlns:xlink="http://www.w3.org/1999/xlink" version="1.1"><rect x="0" y="0" width="900" height="600" fill="#001220"></rect><path d="M0 380L21.5 379.5C43 379 86 378 128.8 399.3C171.7 420.7 214.3 464.3 257.2 485.3C300 506.3 343 504.7 385.8 495.5C428.7 486.3 471.3 469.7 514.2 450.7C557 431.7 600 410.3 642.8 413C685.7 415.7 728.3 442.3 771.2 439.7C814 437 857 405 878.5 389L900 373L900 601L878.5 601C857 601 814 601 771.2 601C728.3 601 685.7 601 642.8 601C600 601 557 601 514.2 601C471.3 601 428.7 601 385.8 601C343 601 300 601 257.2 601C214.3 601 171.7 601 128.8 601C86 601 43 601 21.5 601L0 601Z" fill="#cd8143"></path><path d="M0 530L21.5 526.7C43 523.3 86 516.7 128.8 510C171.7 503.3 214.3 496.7 257.2 494.7C300 492.7 343 495.3 385.8 496.7C428.7 498 471.3 498 514.2 490.8C557 483.7 600 469.3 642.8 464.5C685.7 459.7 728.3 464.3 771.2 454C814 443.7 857 418.3 878.5 405.7L900 393L900 601L878.5 601C857 601 814 601 771.2 601C728.3 601 685.7 601 642.8 601C600 601 557 601 514.2 601C471.3 601 428.7 601 385.8 601C343 601 300 601 257.2 601C214.3 601 171.7 601 128.8 601C86 601 43 601 21.5 601L0 601Z" fill="#e3aa7f"></path><path d="M0 528L21.5 517C43 506 86 484 128.8 486.7C171.7 489.3 214.3 516.7 257.2 524.5C300 532.3 343 520.7 385.8 504.8C428.7 489 471.3 469 514.2 472.8C557 476.7 600 504.3 642.8 518.2C685.7 532 728.3 532 771.2 529.3C814 526.7 857 521.3 878.5 518.7L900 516L900 601L878.5 601C857 601 814 601 771.2 601C728.3 601 685.7 601 642.8 601C600 601 557 601 514.2 601C471.3 601 428.7 601 385.8 601C343 601 300 601 257.2 601C214.3 601 171.7 601 128.8 601C86 601 43 601 21.5 601L0 601Z" fill="#f4d4be"></path><path d="M0 518L21.5 515.8C43 513.7 86 509.3 128.8 516.2C171.7 523 214.3 541 257.2 549.3C300 557.7 343 556.3 385.8 556.7C428.7 557 471.3 559 514.2 562.3C557 565.7 600 570.3 642.8 569.2C685.7 568 728.3 561 771.2 557.3C814 553.7 857 553.3 878.5 553.2L900 553L900 601L878.5 601C857 601 814 601 771.2 601C728.3 601 685.7 601 642.8 601C600 601 557 601 514.2 601C471.3 601 428.7 601 385.8 601C343 601 300 601 257.2 601C214.3 601 171.7 601 128.8 601C86 601 43 601 21.5 601L0 601Z" fill="#ffffff"></path></svg>