<svg id="visual" viewBox="0 0 900 600" width="900" height="600" xmlns="http://www.w3.org/2000/svg" xmlns:xlink="http://www.w3.org/1999/xlink" version="1.1"><rect x="0" y="0" width="900" height="600" fill="#002233"></rect><path d="M0 468L21.5 463.7C43 459.3 86 450.7 128.8 446.7C171.7 442.7 214.3 443.3 257.2 447.3C300 451.3 343 458.7 385.8 450C428.7 441.3 471.3 416.7 514.2 413.7C557 410.7 600 429.3 642.8 450.5C685.7 471.7 728.3 495.3 771.2 492.8C814 490.3 857 461.7 878.5 447.3L900 433L900 601L878.5 601C857 601 814 601 771.2 601C728.3 601 685.7 601 642.8 601C600 601 557 601 514.2 601C471.3 601 428.7 601 385.8 601C343 601 300 601 257.2 601C214.3 601 171.7 601 128.8 601C86 601 43 601 21.5 601L0 601Z" fill="#0066FF" stroke-linecap="round" stroke-linejoin="miter"></path></svg>