<svg id="visual" viewBox="0 0 900 600" width="900" height="600" xmlns="http://www.w3.org/2000/svg" xmlns:xlink="http://www.w3.org/1999/xlink" version="1.1"><rect x="0" y="0" width="900" height="600" fill="#001220"></rect><defs><linearGradient id="grad1_0" x1="33.3%" y1="0%" x2="100%" y2="100%"><stop offset="20%" stop-color="#001220" stop-opacity="1"></stop><stop offset="80%" stop-color="#001220" stop-opacity="1"></stop></linearGradient></defs><defs><linearGradient id="grad2_0" x1="0%" y1="0%" x2="66.7%" y2="100%"><stop offset="20%" stop-color="#001220" stop-opacity="1"></stop><stop offset="80%" stop-color="#001220" stop-opacity="1"></stop></linearGradient></defs><g transform="translate(900, 0)"><path d="M0 486.7C-55.3 458 -110.6 429.2 -169.1 408.4C-227.7 387.5 -289.6 374.7 -339.4 339.4C-389.3 304.2 -427.1 246.6 -449.7 186.3C-472.3 126 -479.5 63 -486.7 0L0 0Z" fill="#8e9dc5"></path></g><g transform="translate(0, 600)"><path d="M0 -486.7C63.1 -470.7 126.2 -454.7 175.7 -424.1C225.1 -393.4 260.8 -348.2 309 -309C357.2 -269.8 418 -236.8 449.7 -186.3C481.4 -135.8 484.1 -67.9 486.7 0L0 0Z" fill="#8e9dc5"></path></g></svg>